<?xml version="1.0" encoding="UTF-8"?>
<svg id="a" data-name="pkops_logo" xmlns="http://www.w3.org/2000/svg" viewBox="0 0 418.18 243.17">
  <defs>
    <style>
      .e {
        stroke: #000;
      }

      .e, .f {
        fill: #231f20;
        stroke-miterlimit: 10;
      }

      .f {
        stroke: #231f20;
      }
    </style>
  </defs>
  <path id="b" data-name="loop_central" class="e" d="M208.94.5c-25.09,0-45.44,35.16-45.44,78.52s20.34,78.52,45.44,78.52,45.44-35.16,45.44-78.52S234.04.5,208.94.5ZM208.14,144.72c-8.03,0-14.54-6.51-14.54-14.54s6.51-14.54,14.54-14.54,14.54,6.51,14.54,14.54-6.51,14.54-14.54,14.54Z"/>
  <path id="c" data-name="loop_right" class="f" d="M410.49,114.17c-17.93-21.47-63.76-12.75-102.36,19.49-38.6,32.24-55.36,75.77-37.44,97.25,17.93,21.47,63.76,12.75,102.36-19.49,38.6-32.24,55.36-75.77,37.44-97.25ZM295.35,228.65c-7.93,0-14.36-6.43-14.36-14.36s6.43-14.36,14.36-14.36,14.36,6.43,14.36,14.36-6.43,14.36-14.36,14.36Z"/>
  <path id="d" data-name="loop_left" class="f" d="M45.12,211.41c38.6,32.24,84.43,40.96,102.36,19.49,17.93-21.47,1.17-65.01-37.44-97.25C71.45,101.42,25.62,92.7,7.69,114.17c-17.93,21.47-1.17,65.01,37.44,97.25ZM108.46,214.29c0-7.93,6.43-14.36,14.36-14.36,7.93,0,14.36,6.43,14.36,14.36s-6.43,14.36-14.36,14.36c-7.93,0-14.36-6.43-14.36-14.36Z"/>
</svg>